<svg width="279" height="22" xmlns="http://www.w3.org/2000/svg">
  <g fill="none" fill-rule="evenodd">
    <text
      opacity=".3"
      font-family="Muli-LightItalic, Muli"
      font-size="16"
      font-style="italic"
      font-height="300"
      fill="#000"
    >
      <tspan x="200" y="18">
        61 reviews
      </tspan>
    </text>
    <path
      fill="#F5B100"
      d="M12 16.202l-7.053 5.506 3.057-8.41L.587 8.292 9.53 8.6 12 0l2.47 8.6 8.943-.308-7.417 5.006 3.057 8.41zM52 16.2l-7.053 5.508 3.059-8.41-7.419-5.006 8.944.31L52 0l2.469 8.602 8.944-.31-7.419 5.006 3.06 8.41zM92 16.2l-7.053 5.508 3.059-8.41-7.419-5.006 8.944.31L92 0l2.469 8.602 8.944-.31-7.419 5.006 3.06 8.41zM132 16.2l-7.053 5.508 3.059-8.41-7.419-5.006 8.944.31L132 0l2.469 8.602 8.944-.31-7.419 5.006 3.06 8.41zM171.783 16.37l-6.836 5.338 3.059-8.41-7.419-5.006 8.944.31 2.252-7.846v15.613z"
    />
    <path
      d="M171.783 16.37V.755L172 0l2.469 8.602 8.944-.31-7.419 5.006 3.06 8.41L172 16.2l-.217.17z"
      fill="#000"
      opacity=".1"
    />
  </g>
</svg>